<?xml version="1.0"?>
<!-- Generated by Aviate Labs, SVG Motoko Package (https://github.com/aviate-labs/svg.mo) -->
<svg width="1200" height="400"
     viewBox="0 0 1200 400"
     xmlns="http://www.w3.org/2000/svg"
     xmlns:xlink="http://www.w3.org/1999/xlink">
<desc>Example arcs01 - arc commands in path data.</desc>
<path d="M300,200 h-150 a150,150 0 1,0 150,-150 z" fill="red" stroke="blue" stroke-width="5"/>
<path d="M275,175 v-150 a150,150 0 0,0 -150,150 z" fill="yellow" stroke="blue" stroke-width="5"/>
<path d="M600,350 l 50,-25 a25,25 -30 0,1 50,-25 l 50,-25 a25,50 -30 0,1 50,-25 l 50,-25 a25,75 -30 0,1 50,-25 l 50,-25 a25,100 -30 0,1 50,-25 l 50,-25" fill="none" stroke="red" stroke-width="5"/>
</svg>
